<svg width="371" height="288" viewBox="0 0 371 288" fill="none" xmlns="http://www.w3.org/2000/svg">
<rect width="371" height="288" rx="32" fill="white"/>
<path d="M50.064 72V55.08H57.072C58.88 55.08 60.272 55.504 61.248 56.352C62.24 57.2 62.736 58.384 62.736 59.904C62.736 60.912 62.512 61.768 62.064 62.472C61.616 63.176 60.984 63.712 60.168 64.08C59.368 64.448 58.432 64.632 57.36 64.632L57.768 64.296H58.344C59 64.296 59.584 64.464 60.096 64.8C60.608 65.12 61.032 65.648 61.368 66.384L63.768 72H61.296L58.968 66.432C58.696 65.744 58.296 65.296 57.768 65.088C57.256 64.88 56.608 64.776 55.824 64.776H52.296V72H50.064ZM52.296 63.048H56.736C57.968 63.048 58.904 62.784 59.544 62.256C60.2 61.728 60.528 60.96 60.528 59.952C60.528 58.96 60.2 58.208 59.544 57.696C58.904 57.168 57.968 56.904 56.736 56.904H52.296V63.048ZM71.7263 72.216C69.8063 72.216 68.2863 71.664 67.1663 70.56C66.0623 69.456 65.5103 67.936 65.5103 66C65.5103 64.72 65.7503 63.616 66.2303 62.688C66.7263 61.744 67.4063 61.016 68.2703 60.504C69.1343 59.976 70.1423 59.712 71.2943 59.712C72.3983 59.712 73.3343 59.952 74.1023 60.432C74.8703 60.896 75.4543 61.56 75.8543 62.424C76.2543 63.288 76.4543 64.312 76.4543 65.496V66.216H67.2143V64.92H74.9663L74.5583 65.232C74.5583 63.984 74.2783 63.016 73.7183 62.328C73.1743 61.64 72.3663 61.296 71.2943 61.296C70.1263 61.296 69.2223 61.704 68.5823 62.52C67.9423 63.32 67.6223 64.416 67.6223 65.808V66.024C67.6223 67.496 67.9823 68.608 68.7023 69.36C69.4383 70.112 70.4543 70.488 71.7503 70.488C72.4703 70.488 73.1423 70.384 73.7663 70.176C74.3903 69.968 74.9903 69.624 75.5663 69.144L76.2863 70.656C75.7423 71.152 75.0623 71.536 74.2463 71.808C73.4463 72.08 72.6063 72.216 71.7263 72.216ZM84.6844 77.376C83.6284 77.376 82.6604 77.248 81.7804 76.992C80.9004 76.736 80.1084 76.344 79.4044 75.816L79.9804 74.208C80.4764 74.544 80.9644 74.816 81.4444 75.024C81.9244 75.232 82.4204 75.384 82.9324 75.48C83.4604 75.576 84.0044 75.624 84.5644 75.624C85.7484 75.624 86.6364 75.32 87.2284 74.712C87.8204 74.104 88.1164 73.24 88.1164 72.12V68.736H88.3564C88.1004 69.648 87.5724 70.376 86.7724 70.92C85.9884 71.448 85.0604 71.712 83.9884 71.712C82.9004 71.712 81.9484 71.472 81.1324 70.992C80.3324 70.496 79.7084 69.8 79.2604 68.904C78.8124 67.992 78.5884 66.928 78.5884 65.712C78.5884 64.48 78.8124 63.416 79.2604 62.52C79.7084 61.624 80.3324 60.936 81.1324 60.456C81.9484 59.96 82.9004 59.712 83.9884 59.712C85.0604 59.712 85.9884 59.976 86.7724 60.504C87.5564 61.032 88.0764 61.76 88.3324 62.688L88.1164 62.472L88.3324 59.928H90.4444C90.3964 60.408 90.3484 60.888 90.3004 61.368C90.2684 61.848 90.2524 62.32 90.2524 62.784V71.856C90.2524 73.648 89.7804 75.016 88.8364 75.96C87.9084 76.904 86.5244 77.376 84.6844 77.376ZM84.4684 69.984C85.5724 69.984 86.4524 69.608 87.1084 68.856C87.7644 68.104 88.0924 67.056 88.0924 65.712C88.0924 64.352 87.7644 63.304 87.1084 62.568C86.4524 61.832 85.5724 61.464 84.4684 61.464C83.3484 61.464 82.4524 61.832 81.7804 62.568C81.1244 63.304 80.7964 64.352 80.7964 65.712C80.7964 67.056 81.1244 68.104 81.7804 68.856C82.4524 69.608 83.3484 69.984 84.4684 69.984ZM93.9099 72V59.928H96.0939V72H93.9099ZM93.7179 57.288V54.936H96.3099V57.288H93.7179ZM103.826 72.216C102.85 72.216 101.938 72.088 101.09 71.832C100.258 71.576 99.5699 71.208 99.0259 70.728L99.7219 69.216C100.314 69.664 100.962 70.008 101.666 70.248C102.386 70.472 103.122 70.584 103.874 70.584C104.786 70.584 105.474 70.416 105.938 70.08C106.418 69.744 106.658 69.296 106.658 68.736C106.658 68.288 106.506 67.928 106.202 67.656C105.898 67.384 105.418 67.184 104.762 67.056L102.482 66.6C101.458 66.36 100.682 65.976 100.154 65.448C99.6419 64.904 99.3859 64.208 99.3859 63.36C99.3859 62.656 99.5779 62.032 99.9619 61.488C100.346 60.928 100.89 60.496 101.594 60.192C102.314 59.872 103.154 59.712 104.114 59.712C104.994 59.712 105.81 59.84 106.562 60.096C107.33 60.352 107.962 60.728 108.458 61.224L107.738 62.688C107.242 62.256 106.682 61.928 106.058 61.704C105.45 61.464 104.826 61.344 104.186 61.344C103.258 61.344 102.57 61.528 102.122 61.896C101.674 62.248 101.45 62.712 101.45 63.288C101.45 63.72 101.586 64.08 101.858 64.368C102.13 64.64 102.57 64.848 103.178 64.992L105.458 65.448C106.53 65.672 107.338 66.04 107.882 66.552C108.426 67.064 108.698 67.744 108.698 68.592C108.698 69.344 108.49 69.992 108.074 70.536C107.674 71.08 107.106 71.496 106.37 71.784C105.65 72.072 104.802 72.216 103.826 72.216ZM116.07 72.216C114.806 72.216 113.846 71.872 113.19 71.184C112.55 70.48 112.23 69.424 112.23 68.016V61.608H109.878V59.928H112.23V56.688L114.414 56.088V59.928H117.822V61.608H114.414V67.824C114.414 68.752 114.574 69.416 114.894 69.816C115.23 70.2 115.71 70.392 116.334 70.392C116.654 70.392 116.926 70.368 117.15 70.32C117.39 70.256 117.606 70.184 117.798 70.104V71.904C117.558 72 117.278 72.072 116.958 72.12C116.654 72.184 116.358 72.216 116.07 72.216ZM125.492 72.216C123.572 72.216 122.052 71.664 120.932 70.56C119.828 69.456 119.276 67.936 119.276 66C119.276 64.72 119.516 63.616 119.996 62.688C120.492 61.744 121.172 61.016 122.036 60.504C122.9 59.976 123.908 59.712 125.06 59.712C126.164 59.712 127.1 59.952 127.868 60.432C128.636 60.896 129.22 61.56 129.62 62.424C130.02 63.288 130.22 64.312 130.22 65.496V66.216H120.98V64.92H128.732L128.324 65.232C128.324 63.984 128.044 63.016 127.484 62.328C126.94 61.64 126.132 61.296 125.06 61.296C123.892 61.296 122.988 61.704 122.348 62.52C121.708 63.32 121.388 64.416 121.388 65.808V66.024C121.388 67.496 121.748 68.608 122.468 69.36C123.204 70.112 124.22 70.488 125.516 70.488C126.236 70.488 126.908 70.384 127.532 70.176C128.156 69.968 128.756 69.624 129.332 69.144L130.052 70.656C129.508 71.152 128.828 71.536 128.012 71.808C127.212 72.08 126.372 72.216 125.492 72.216ZM133.05 72V62.88C133.05 62.4 133.034 61.912 133.002 61.416C132.986 60.904 132.946 60.408 132.882 59.928H134.994L135.258 62.952L134.898 62.976C135.058 62.24 135.33 61.632 135.714 61.152C136.114 60.656 136.586 60.296 137.13 60.072C137.69 59.832 138.266 59.712 138.858 59.712C139.114 59.712 139.33 59.72 139.506 59.736C139.682 59.752 139.858 59.792 140.034 59.856L139.986 61.8C139.746 61.704 139.522 61.648 139.314 61.632C139.122 61.6 138.882 61.584 138.594 61.584C137.89 61.584 137.282 61.744 136.77 62.064C136.274 62.384 135.89 62.808 135.618 63.336C135.362 63.864 135.234 64.432 135.234 65.04V72H133.05ZM147.289 72.216C145.369 72.216 143.849 71.664 142.729 70.56C141.625 69.456 141.073 67.936 141.073 66C141.073 64.72 141.313 63.616 141.793 62.688C142.289 61.744 142.969 61.016 143.833 60.504C144.697 59.976 145.705 59.712 146.857 59.712C147.961 59.712 148.897 59.952 149.665 60.432C150.433 60.896 151.017 61.56 151.417 62.424C151.817 63.288 152.017 64.312 152.017 65.496V66.216H142.777V64.92H150.529L150.121 65.232C150.121 63.984 149.841 63.016 149.281 62.328C148.737 61.64 147.929 61.296 146.857 61.296C145.689 61.296 144.785 61.704 144.145 62.52C143.505 63.32 143.185 64.416 143.185 65.808V66.024C143.185 67.496 143.545 68.608 144.265 69.36C145.001 70.112 146.017 70.488 147.313 70.488C148.033 70.488 148.705 70.384 149.329 70.176C149.953 69.968 150.553 69.624 151.129 69.144L151.849 70.656C151.305 71.152 150.625 71.536 149.809 71.808C149.009 72.08 148.169 72.216 147.289 72.216ZM159.479 72.216C158.423 72.216 157.495 71.968 156.695 71.472C155.895 70.976 155.271 70.256 154.823 69.312C154.375 68.368 154.151 67.248 154.151 65.952C154.151 64.656 154.375 63.544 154.823 62.616C155.271 61.672 155.895 60.952 156.695 60.456C157.495 59.96 158.423 59.712 159.479 59.712C160.535 59.712 161.455 59.976 162.239 60.504C163.039 61.032 163.575 61.76 163.847 62.688H163.559V54.336H165.743V72H163.583V69.192H163.847C163.591 70.136 163.063 70.88 162.263 71.424C161.479 71.952 160.551 72.216 159.479 72.216ZM159.983 70.488C161.071 70.488 161.943 70.104 162.599 69.336C163.271 68.568 163.607 67.44 163.607 65.952C163.607 64.464 163.271 63.344 162.599 62.592C161.943 61.84 161.071 61.464 159.983 61.464C158.895 61.464 158.015 61.84 157.343 62.592C156.687 63.344 156.359 64.464 156.359 65.952C156.359 67.44 156.687 68.568 157.343 69.336C158.015 70.104 158.895 70.488 159.983 70.488ZM182.714 72.216C180.394 72.216 178.666 71.632 177.53 70.464C176.41 69.28 175.85 67.544 175.85 65.256V55.08H178.106V65.184C178.106 66.864 178.474 68.128 179.21 68.976C179.946 69.824 181.114 70.248 182.714 70.248C184.25 70.248 185.402 69.824 186.17 68.976C186.954 68.128 187.346 66.864 187.346 65.184V55.08H189.554V65.256C189.554 67.544 188.978 69.28 187.826 70.464C186.674 71.632 184.97 72.216 182.714 72.216ZM197.412 72.216C196.436 72.216 195.524 72.088 194.676 71.832C193.844 71.576 193.156 71.208 192.612 70.728L193.308 69.216C193.9 69.664 194.548 70.008 195.252 70.248C195.972 70.472 196.708 70.584 197.46 70.584C198.372 70.584 199.06 70.416 199.524 70.08C200.004 69.744 200.244 69.296 200.244 68.736C200.244 68.288 200.092 67.928 199.788 67.656C199.484 67.384 199.004 67.184 198.348 67.056L196.068 66.6C195.044 66.36 194.268 65.976 193.74 65.448C193.228 64.904 192.972 64.208 192.972 63.36C192.972 62.656 193.164 62.032 193.548 61.488C193.932 60.928 194.476 60.496 195.18 60.192C195.9 59.872 196.74 59.712 197.7 59.712C198.58 59.712 199.396 59.84 200.148 60.096C200.916 60.352 201.548 60.728 202.044 61.224L201.324 62.688C200.828 62.256 200.268 61.928 199.644 61.704C199.036 61.464 198.412 61.344 197.772 61.344C196.844 61.344 196.156 61.528 195.708 61.896C195.26 62.248 195.036 62.712 195.036 63.288C195.036 63.72 195.172 64.08 195.444 64.368C195.716 64.64 196.156 64.848 196.764 64.992L199.044 65.448C200.116 65.672 200.924 66.04 201.468 66.552C202.012 67.064 202.284 67.744 202.284 68.592C202.284 69.344 202.076 69.992 201.66 70.536C201.26 71.08 200.692 71.496 199.956 71.784C199.236 72.072 198.388 72.216 197.412 72.216ZM210.758 72.216C208.838 72.216 207.318 71.664 206.198 70.56C205.094 69.456 204.542 67.936 204.542 66C204.542 64.72 204.782 63.616 205.262 62.688C205.758 61.744 206.438 61.016 207.302 60.504C208.166 59.976 209.174 59.712 210.326 59.712C211.43 59.712 212.366 59.952 213.134 60.432C213.902 60.896 214.486 61.56 214.886 62.424C215.286 63.288 215.486 64.312 215.486 65.496V66.216H206.246V64.92H213.998L213.59 65.232C213.59 63.984 213.31 63.016 212.75 62.328C212.206 61.64 211.398 61.296 210.326 61.296C209.158 61.296 208.254 61.704 207.614 62.52C206.974 63.32 206.654 64.416 206.654 65.808V66.024C206.654 67.496 207.014 68.608 207.734 69.36C208.47 70.112 209.486 70.488 210.782 70.488C211.502 70.488 212.174 70.384 212.798 70.176C213.422 69.968 214.022 69.624 214.598 69.144L215.318 70.656C214.774 71.152 214.094 71.536 213.278 71.808C212.478 72.08 211.638 72.216 210.758 72.216ZM218.316 72V62.88C218.316 62.4 218.3 61.912 218.268 61.416C218.252 60.904 218.212 60.408 218.148 59.928H220.26L220.524 62.952L220.164 62.976C220.324 62.24 220.596 61.632 220.98 61.152C221.38 60.656 221.852 60.296 222.396 60.072C222.956 59.832 223.532 59.712 224.124 59.712C224.38 59.712 224.596 59.72 224.772 59.736C224.948 59.752 225.124 59.792 225.3 59.856L225.252 61.8C225.012 61.704 224.788 61.648 224.58 61.632C224.388 61.6 224.148 61.584 223.86 61.584C223.156 61.584 222.548 61.744 222.036 62.064C221.54 62.384 221.156 62.808 220.884 63.336C220.628 63.864 220.5 64.432 220.5 65.04V72H218.316ZM231.185 72.216C230.209 72.216 229.297 72.088 228.449 71.832C227.617 71.576 226.929 71.208 226.385 70.728L227.081 69.216C227.673 69.664 228.321 70.008 229.025 70.248C229.745 70.472 230.481 70.584 231.233 70.584C232.145 70.584 232.833 70.416 233.297 70.08C233.777 69.744 234.017 69.296 234.017 68.736C234.017 68.288 233.865 67.928 233.561 67.656C233.257 67.384 232.777 67.184 232.121 67.056L229.841 66.6C228.817 66.36 228.041 65.976 227.513 65.448C227.001 64.904 226.745 64.208 226.745 63.36C226.745 62.656 226.937 62.032 227.321 61.488C227.705 60.928 228.249 60.496 228.953 60.192C229.673 59.872 230.513 59.712 231.473 59.712C232.353 59.712 233.169 59.84 233.921 60.096C234.689 60.352 235.321 60.728 235.817 61.224L235.097 62.688C234.601 62.256 234.041 61.928 233.417 61.704C232.809 61.464 232.185 61.344 231.545 61.344C230.617 61.344 229.929 61.528 229.481 61.896C229.033 62.248 228.809 62.712 228.809 63.288C228.809 63.72 228.945 64.08 229.217 64.368C229.489 64.64 229.929 64.848 230.537 64.992L232.817 65.448C233.889 65.672 234.697 66.04 235.241 66.552C235.785 67.064 236.057 67.744 236.057 68.592C236.057 69.344 235.849 69.992 235.433 70.536C235.033 71.08 234.465 71.496 233.729 71.784C233.009 72.072 232.161 72.216 231.185 72.216Z" fill="#12132D" fill-opacity="0.8"/>
<path d="M301.2 72.216C299.264 72.216 297.776 71.472 296.736 69.984C295.696 68.48 295.176 66.328 295.176 63.528C295.176 60.68 295.696 58.528 296.736 57.072C297.776 55.6 299.264 54.864 301.2 54.864C303.152 54.864 304.64 55.6 305.664 57.072C306.704 58.528 307.224 60.672 307.224 63.504C307.224 66.32 306.704 68.48 305.664 69.984C304.624 71.472 303.136 72.216 301.2 72.216ZM301.2 70.32C302.48 70.32 303.432 69.768 304.056 68.664C304.696 67.56 305.016 65.84 305.016 63.504C305.016 61.168 304.696 59.464 304.056 58.392C303.432 57.304 302.48 56.76 301.2 56.76C299.936 56.76 298.984 57.304 298.344 58.392C297.704 59.464 297.384 61.168 297.384 63.504C297.384 65.84 297.704 67.56 298.344 68.664C298.984 69.768 299.936 70.32 301.2 70.32ZM311.367 72V70.104H315.327V56.976H316.455L311.727 59.904V57.72L315.951 55.08H317.559V70.104H321.279V72H311.367Z" fill="#12132D" fill-opacity="0.8"/>
<path d="M50.064 126V109.08H60.768V110.904H52.296V116.568H60.216V118.392H52.296V126H50.064ZM68.037 126.216C66.853 126.216 65.829 125.968 64.965 125.472C64.101 124.96 63.429 124.24 62.949 123.312C62.469 122.368 62.229 121.248 62.229 119.952C62.229 118.672 62.469 117.568 62.949 116.64C63.429 115.696 64.101 114.976 64.965 114.48C65.829 113.968 66.853 113.712 68.037 113.712C69.221 113.712 70.245 113.968 71.109 114.48C71.989 114.976 72.661 115.696 73.125 116.64C73.605 117.568 73.845 118.672 73.845 119.952C73.845 121.248 73.605 122.368 73.125 123.312C72.661 124.24 71.989 124.96 71.109 125.472C70.245 125.968 69.221 126.216 68.037 126.216ZM68.037 124.488C69.125 124.488 69.997 124.104 70.653 123.336C71.309 122.568 71.637 121.44 71.637 119.952C71.637 118.464 71.309 117.344 70.653 116.592C69.997 115.84 69.125 115.464 68.037 115.464C66.933 115.464 66.053 115.84 65.397 116.592C64.757 117.344 64.437 118.464 64.437 119.952C64.437 121.44 64.757 122.568 65.397 123.336C66.053 124.104 66.933 124.488 68.037 124.488ZM76.7531 126V116.88C76.7531 116.4 76.7371 115.912 76.7051 115.416C76.6891 114.904 76.6491 114.408 76.5851 113.928H78.6971L78.9611 116.952L78.6011 116.976C78.7611 116.24 79.0331 115.632 79.4171 115.152C79.8171 114.656 80.2891 114.296 80.8331 114.072C81.3931 113.832 81.9691 113.712 82.5611 113.712C82.8171 113.712 83.0331 113.72 83.2091 113.736C83.3851 113.752 83.5611 113.792 83.7371 113.856L83.6891 115.8C83.4491 115.704 83.2251 115.648 83.0171 115.632C82.8251 115.6 82.5851 115.584 82.2971 115.584C81.5931 115.584 80.9851 115.744 80.4731 116.064C79.9771 116.384 79.5931 116.808 79.3211 117.336C79.0651 117.864 78.9371 118.432 78.9371 119.04V126H76.7531ZM89.9559 126.216C88.4999 126.216 87.4039 125.824 86.6679 125.04C85.9479 124.256 85.5879 123.048 85.5879 121.416V113.928H87.7719V121.368C87.7719 122.424 87.9879 123.2 88.4199 123.696C88.8519 124.192 89.5239 124.44 90.4359 124.44C91.4279 124.44 92.2279 124.112 92.8359 123.456C93.4599 122.784 93.7719 121.896 93.7719 120.792V113.928H95.9559V126H93.8439V123.336H94.1559C93.8199 124.248 93.2839 124.96 92.5479 125.472C91.8119 125.968 90.9479 126.216 89.9559 126.216ZM99.6287 126V116.784C99.6287 116.32 99.6127 115.848 99.5807 115.368C99.5487 114.888 99.5007 114.408 99.4367 113.928H101.549L101.789 116.52H101.501C101.821 115.624 102.333 114.936 103.037 114.456C103.741 113.96 104.581 113.712 105.557 113.712C106.549 113.712 107.365 113.952 108.005 114.432C108.645 114.896 109.077 115.632 109.301 116.64H108.941C109.245 115.744 109.781 115.032 110.549 114.504C111.317 113.976 112.213 113.712 113.237 113.712C114.565 113.712 115.565 114.104 116.237 114.888C116.909 115.656 117.245 116.856 117.245 118.488V126H115.061V118.608C115.061 117.504 114.869 116.712 114.485 116.232C114.101 115.736 113.493 115.488 112.661 115.488C111.685 115.488 110.917 115.824 110.357 116.496C109.797 117.152 109.517 118.048 109.517 119.184V126H107.333V118.608C107.333 117.504 107.141 116.712 106.757 116.232C106.389 115.736 105.781 115.488 104.933 115.488C103.957 115.488 103.189 115.824 102.629 116.496C102.085 117.152 101.813 118.048 101.813 119.184V126H99.6287Z" fill="#12132D" fill-opacity="0.8"/>
<path d="M301.2 126.216C299.264 126.216 297.776 125.472 296.736 123.984C295.696 122.48 295.176 120.328 295.176 117.528C295.176 114.68 295.696 112.528 296.736 111.072C297.776 109.6 299.264 108.864 301.2 108.864C303.152 108.864 304.64 109.6 305.664 111.072C306.704 112.528 307.224 114.672 307.224 117.504C307.224 120.32 306.704 122.48 305.664 123.984C304.624 125.472 303.136 126.216 301.2 126.216ZM301.2 124.32C302.48 124.32 303.432 123.768 304.056 122.664C304.696 121.56 305.016 119.84 305.016 117.504C305.016 115.168 304.696 113.464 304.056 112.392C303.432 111.304 302.48 110.76 301.2 110.76C299.936 110.76 298.984 111.304 298.344 112.392C297.704 113.464 297.384 115.168 297.384 117.504C297.384 119.84 297.704 121.56 298.344 122.664C298.984 123.768 299.936 124.32 301.2 124.32ZM315.879 126.216C315.143 126.216 314.415 126.136 313.695 125.976C312.991 125.816 312.327 125.592 311.703 125.304C311.079 125 310.535 124.632 310.071 124.2L310.863 122.472C311.647 123.096 312.447 123.56 313.263 123.864C314.079 124.152 314.935 124.296 315.831 124.296C317.015 124.296 317.943 123.984 318.615 123.36C319.287 122.736 319.623 121.904 319.623 120.864C319.623 119.792 319.303 118.928 318.663 118.272C318.023 117.6 317.135 117.264 315.999 117.264C315.215 117.264 314.503 117.424 313.863 117.744C313.239 118.048 312.687 118.536 312.207 119.208H310.623V109.08H320.775V110.976H312.783V117.384H312.207C312.639 116.744 313.223 116.248 313.959 115.896C314.711 115.544 315.551 115.368 316.479 115.368C317.567 115.368 318.503 115.592 319.287 116.04C320.087 116.488 320.703 117.12 321.135 117.936C321.583 118.736 321.807 119.672 321.807 120.744C321.807 121.816 321.567 122.768 321.087 123.6C320.607 124.416 319.919 125.056 319.023 125.52C318.143 125.984 317.095 126.216 315.879 126.216Z" fill="#12132D" fill-opacity="0.8"/>
<path d="M54.12 180V164.976H48.264V163.08H62.256V164.976H56.376V180H54.12ZM67.6386 180.216C66.4546 180.216 65.4306 179.968 64.5666 179.472C63.7026 178.96 63.0306 178.24 62.5506 177.312C62.0706 176.368 61.8306 175.248 61.8306 173.952C61.8306 172.672 62.0706 171.568 62.5506 170.64C63.0306 169.696 63.7026 168.976 64.5666 168.48C65.4306 167.968 66.4546 167.712 67.6386 167.712C68.8226 167.712 69.8466 167.968 70.7106 168.48C71.5906 168.976 72.2626 169.696 72.7266 170.64C73.2066 171.568 73.4466 172.672 73.4466 173.952C73.4466 175.248 73.2066 176.368 72.7266 177.312C72.2626 178.24 71.5906 178.96 70.7106 179.472C69.8466 179.968 68.8226 180.216 67.6386 180.216ZM67.6386 178.488C68.7266 178.488 69.5986 178.104 70.2546 177.336C70.9106 176.568 71.2386 175.44 71.2386 173.952C71.2386 172.464 70.9106 171.344 70.2546 170.592C69.5986 169.84 68.7266 169.464 67.6386 169.464C66.5346 169.464 65.6546 169.84 64.9986 170.592C64.3586 171.344 64.0386 172.464 64.0386 173.952C64.0386 175.44 64.3586 176.568 64.9986 177.336C65.6546 178.104 66.5346 178.488 67.6386 178.488ZM76.3787 185.184V170.784C76.3787 170.32 76.3627 169.848 76.3307 169.368C76.2987 168.888 76.2507 168.408 76.1867 167.928H78.2987L78.5627 170.712H78.2987C78.5387 169.784 79.0507 169.056 79.8347 168.528C80.6187 167.984 81.5547 167.712 82.6427 167.712C83.7147 167.712 84.6507 167.96 85.4507 168.456C86.2507 168.952 86.8667 169.672 87.2987 170.616C87.7467 171.544 87.9707 172.656 87.9707 173.952C87.9707 175.248 87.7467 176.368 87.2987 177.312C86.8667 178.256 86.2507 178.976 85.4507 179.472C84.6507 179.968 83.7147 180.216 82.6427 180.216C81.5707 180.216 80.6427 179.952 79.8587 179.424C79.0907 178.88 78.5707 178.152 78.2987 177.24H78.5627V185.184H76.3787ZM82.1387 178.488C83.2427 178.488 84.1227 178.104 84.7787 177.336C85.4347 176.568 85.7627 175.44 85.7627 173.952C85.7627 172.464 85.4347 171.344 84.7787 170.592C84.1227 169.84 83.2427 169.464 82.1387 169.464C81.0347 169.464 80.1547 169.84 79.4987 170.592C78.8587 171.344 78.5387 172.464 78.5387 173.952C78.5387 175.44 78.8587 176.568 79.4987 177.336C80.1547 178.104 81.0347 178.488 82.1387 178.488ZM90.9099 180V167.928H93.0939V180H90.9099ZM90.7179 165.288V162.936H93.3099V165.288H90.7179ZM101.93 180.216C100.73 180.216 99.6899 179.968 98.8099 179.472C97.9299 178.96 97.2419 178.232 96.7459 177.288C96.2659 176.328 96.0259 175.192 96.0259 173.88C96.0259 172.584 96.2739 171.48 96.7699 170.568C97.2659 169.64 97.9539 168.936 98.8339 168.456C99.7139 167.96 100.746 167.712 101.93 167.712C102.714 167.712 103.474 167.848 104.21 168.12C104.946 168.376 105.546 168.752 106.01 169.248L105.266 170.784C104.802 170.336 104.29 170.008 103.73 169.8C103.17 169.576 102.618 169.464 102.074 169.464C100.89 169.464 99.9619 169.848 99.2899 170.616C98.6179 171.368 98.2819 172.464 98.2819 173.904C98.2819 175.36 98.6179 176.48 99.2899 177.264C99.9619 178.048 100.89 178.44 102.074 178.44C102.602 178.44 103.146 178.336 103.706 178.128C104.266 177.92 104.786 177.592 105.266 177.144L106.01 178.656C105.53 179.168 104.914 179.56 104.162 179.832C103.426 180.088 102.682 180.216 101.93 180.216ZM112.756 180.216C111.78 180.216 110.868 180.088 110.02 179.832C109.188 179.576 108.5 179.208 107.956 178.728L108.652 177.216C109.244 177.664 109.892 178.008 110.596 178.248C111.316 178.472 112.052 178.584 112.804 178.584C113.716 178.584 114.404 178.416 114.868 178.08C115.348 177.744 115.588 177.296 115.588 176.736C115.588 176.288 115.436 175.928 115.132 175.656C114.828 175.384 114.348 175.184 113.692 175.056L111.412 174.6C110.388 174.36 109.612 173.976 109.084 173.448C108.572 172.904 108.316 172.208 108.316 171.36C108.316 170.656 108.508 170.032 108.892 169.488C109.276 168.928 109.82 168.496 110.524 168.192C111.244 167.872 112.084 167.712 113.044 167.712C113.924 167.712 114.74 167.84 115.492 168.096C116.26 168.352 116.892 168.728 117.388 169.224L116.668 170.688C116.172 170.256 115.612 169.928 114.988 169.704C114.38 169.464 113.756 169.344 113.116 169.344C112.188 169.344 111.5 169.528 111.052 169.896C110.604 170.248 110.38 170.712 110.38 171.288C110.38 171.72 110.516 172.08 110.788 172.368C111.06 172.64 111.5 172.848 112.108 172.992L114.388 173.448C115.46 173.672 116.268 174.04 116.812 174.552C117.356 175.064 117.628 175.744 117.628 176.592C117.628 177.344 117.42 177.992 117.004 178.536C116.604 179.08 116.036 179.496 115.3 179.784C114.58 180.072 113.732 180.216 112.756 180.216Z" fill="#12132D" fill-opacity="0.8"/>
<path d="M301.2 180.216C299.264 180.216 297.776 179.472 296.736 177.984C295.696 176.48 295.176 174.328 295.176 171.528C295.176 168.68 295.696 166.528 296.736 165.072C297.776 163.6 299.264 162.864 301.2 162.864C303.152 162.864 304.64 163.6 305.664 165.072C306.704 166.528 307.224 168.672 307.224 171.504C307.224 174.32 306.704 176.48 305.664 177.984C304.624 179.472 303.136 180.216 301.2 180.216ZM301.2 178.32C302.48 178.32 303.432 177.768 304.056 176.664C304.696 175.56 305.016 173.84 305.016 171.504C305.016 169.168 304.696 167.464 304.056 166.392C303.432 165.304 302.48 164.76 301.2 164.76C299.936 164.76 298.984 165.304 298.344 166.392C297.704 167.464 297.384 169.168 297.384 171.504C297.384 173.84 297.704 175.56 298.344 176.664C298.984 177.768 299.936 178.32 301.2 178.32ZM311.367 180V178.104H315.327V164.976H316.455L311.727 167.904V165.72L315.951 163.08H317.559V178.104H321.279V180H311.367Z" fill="#12132D" fill-opacity="0.8"/>
<path d="M50.064 234V217.08H57.072C58.88 217.08 60.272 217.504 61.248 218.352C62.24 219.2 62.736 220.384 62.736 221.904C62.736 222.912 62.512 223.768 62.064 224.472C61.616 225.176 60.984 225.712 60.168 226.08C59.368 226.448 58.432 226.632 57.36 226.632L57.768 226.296H58.344C59 226.296 59.584 226.464 60.096 226.8C60.608 227.12 61.032 227.648 61.368 228.384L63.768 234H61.296L58.968 228.432C58.696 227.744 58.296 227.296 57.768 227.088C57.256 226.88 56.608 226.776 55.824 226.776H52.296V234H50.064ZM52.296 225.048H56.736C57.968 225.048 58.904 224.784 59.544 224.256C60.2 223.728 60.528 222.96 60.528 221.952C60.528 220.96 60.2 220.208 59.544 219.696C58.904 219.168 57.968 218.904 56.736 218.904H52.296V225.048ZM71.7263 234.216C69.8063 234.216 68.2863 233.664 67.1663 232.56C66.0623 231.456 65.5103 229.936 65.5103 228C65.5103 226.72 65.7503 225.616 66.2303 224.688C66.7263 223.744 67.4063 223.016 68.2703 222.504C69.1343 221.976 70.1423 221.712 71.2943 221.712C72.3983 221.712 73.3343 221.952 74.1023 222.432C74.8703 222.896 75.4543 223.56 75.8543 224.424C76.2543 225.288 76.4543 226.312 76.4543 227.496V228.216H67.2143V226.92H74.9663L74.5583 227.232C74.5583 225.984 74.2783 225.016 73.7183 224.328C73.1743 223.64 72.3663 223.296 71.2943 223.296C70.1263 223.296 69.2223 223.704 68.5823 224.52C67.9423 225.32 67.6223 226.416 67.6223 227.808V228.024C67.6223 229.496 67.9823 230.608 68.7023 231.36C69.4383 232.112 70.4543 232.488 71.7503 232.488C72.4703 232.488 73.1423 232.384 73.7663 232.176C74.3903 231.968 74.9903 231.624 75.5663 231.144L76.2863 232.656C75.7423 233.152 75.0623 233.536 74.2463 233.808C73.4463 234.08 72.6063 234.216 71.7263 234.216ZM79.3084 239.184V224.784C79.3084 224.32 79.2924 223.848 79.2604 223.368C79.2284 222.888 79.1804 222.408 79.1164 221.928H81.2284L81.4924 224.712H81.2284C81.4684 223.784 81.9804 223.056 82.7644 222.528C83.5484 221.984 84.4844 221.712 85.5724 221.712C86.6444 221.712 87.5804 221.96 88.3804 222.456C89.1804 222.952 89.7964 223.672 90.2284 224.616C90.6764 225.544 90.9004 226.656 90.9004 227.952C90.9004 229.248 90.6764 230.368 90.2284 231.312C89.7964 232.256 89.1804 232.976 88.3804 233.472C87.5804 233.968 86.6444 234.216 85.5724 234.216C84.5004 234.216 83.5724 233.952 82.7884 233.424C82.0204 232.88 81.5004 232.152 81.2284 231.24H81.4924V239.184H79.3084ZM85.0684 232.488C86.1724 232.488 87.0524 232.104 87.7084 231.336C88.3644 230.568 88.6924 229.44 88.6924 227.952C88.6924 226.464 88.3644 225.344 87.7084 224.592C87.0524 223.84 86.1724 223.464 85.0684 223.464C83.9644 223.464 83.0844 223.84 82.4284 224.592C81.7884 225.344 81.4684 226.464 81.4684 227.952C81.4684 229.44 81.7884 230.568 82.4284 231.336C83.0844 232.104 83.9644 232.488 85.0684 232.488ZM93.8396 234V216.336H96.0236V234H93.8396ZM99.6756 234V221.928H101.86V234H99.6756ZM99.4836 219.288V216.936H102.076V219.288H99.4836ZM111.008 234.216C109.088 234.216 107.568 233.664 106.448 232.56C105.344 231.456 104.792 229.936 104.792 228C104.792 226.72 105.032 225.616 105.512 224.688C106.008 223.744 106.688 223.016 107.552 222.504C108.416 221.976 109.424 221.712 110.576 221.712C111.68 221.712 112.616 221.952 113.384 222.432C114.152 222.896 114.736 223.56 115.136 224.424C115.536 225.288 115.736 226.312 115.736 227.496V228.216H106.496V226.92H114.248L113.84 227.232C113.84 225.984 113.56 225.016 113 224.328C112.456 223.64 111.648 223.296 110.576 223.296C109.408 223.296 108.504 223.704 107.864 224.52C107.224 225.32 106.904 226.416 106.904 227.808V228.024C106.904 229.496 107.264 230.608 107.984 231.36C108.72 232.112 109.736 232.488 111.032 232.488C111.752 232.488 112.424 232.384 113.048 232.176C113.672 231.968 114.272 231.624 114.848 231.144L115.568 232.656C115.024 233.152 114.344 233.536 113.528 233.808C112.728 234.08 111.888 234.216 111.008 234.216ZM122.67 234.216C121.694 234.216 120.782 234.088 119.934 233.832C119.102 233.576 118.414 233.208 117.87 232.728L118.566 231.216C119.158 231.664 119.806 232.008 120.51 232.248C121.23 232.472 121.966 232.584 122.718 232.584C123.63 232.584 124.318 232.416 124.782 232.08C125.262 231.744 125.502 231.296 125.502 230.736C125.502 230.288 125.35 229.928 125.046 229.656C124.742 229.384 124.262 229.184 123.606 229.056L121.326 228.6C120.302 228.36 119.526 227.976 118.998 227.448C118.486 226.904 118.23 226.208 118.23 225.36C118.23 224.656 118.422 224.032 118.806 223.488C119.19 222.928 119.734 222.496 120.438 222.192C121.158 221.872 121.998 221.712 122.958 221.712C123.838 221.712 124.654 221.84 125.406 222.096C126.174 222.352 126.806 222.728 127.302 223.224L126.582 224.688C126.086 224.256 125.526 223.928 124.902 223.704C124.294 223.464 123.67 223.344 123.03 223.344C122.102 223.344 121.414 223.528 120.966 223.896C120.518 224.248 120.294 224.712 120.294 225.288C120.294 225.72 120.43 226.08 120.702 226.368C120.974 226.64 121.414 226.848 122.022 226.992L124.302 227.448C125.374 227.672 126.182 228.04 126.726 228.552C127.27 229.064 127.542 229.744 127.542 230.592C127.542 231.344 127.334 231.992 126.918 232.536C126.518 233.08 125.95 233.496 125.214 233.784C124.494 234.072 123.646 234.216 122.67 234.216Z" fill="#12132D" fill-opacity="0.8"/>
<path d="M301.2 234.216C299.264 234.216 297.776 233.472 296.736 231.984C295.696 230.48 295.176 228.328 295.176 225.528C295.176 222.68 295.696 220.528 296.736 219.072C297.776 217.6 299.264 216.864 301.2 216.864C303.152 216.864 304.64 217.6 305.664 219.072C306.704 220.528 307.224 222.672 307.224 225.504C307.224 228.32 306.704 230.48 305.664 231.984C304.624 233.472 303.136 234.216 301.2 234.216ZM301.2 232.32C302.48 232.32 303.432 231.768 304.056 230.664C304.696 229.56 305.016 227.84 305.016 225.504C305.016 223.168 304.696 221.464 304.056 220.392C303.432 219.304 302.48 218.76 301.2 218.76C299.936 218.76 298.984 219.304 298.344 220.392C297.704 221.464 297.384 223.168 297.384 225.504C297.384 227.84 297.704 229.56 298.344 230.664C298.984 231.768 299.936 232.32 301.2 232.32ZM311.367 234V232.104H315.327V218.976H316.455L311.727 221.904V219.72L315.951 217.08H317.559V232.104H321.279V234H311.367Z" fill="#12132D" fill-opacity="0.8"/>
</svg>
